<mxfile host="app.diagrams.net" agent="Mozilla/5.0 (Windows NT 10.0; Win64; x64) AppleWebKit/537.36 (KHTML, like Gecko) Chrome/130.0.0.0 Safari/537.36 Edg/130.0.0.0" version="24.8.4">
  <diagram name="Page-1" id="nsN9Z3FJLK4-Vr395sia">
    <mxGraphModel dx="1282" dy="565" grid="1" gridSize="10" guides="1" tooltips="1" connect="1" arrows="1" fold="1" page="1" pageScale="1" pageWidth="4681" pageHeight="3300" math="0" shadow="0">
      <root>
        <mxCell id="0" />
        <mxCell id="1" parent="0" />
        <mxCell id="ZcbmFHMYMkMTd6hsv2YF-1" value="Start" style="whiteSpace=wrap;strokeWidth=2;" parent="1" vertex="1">
          <mxGeometry x="289" y="20" width="95" height="48" as="geometry" />
        </mxCell>
        <mxCell id="ZcbmFHMYMkMTd6hsv2YF-2" value="Step 1: Learn Python Basics" style="whiteSpace=wrap;strokeWidth=2;" parent="1" vertex="1">
          <mxGeometry x="208" y="118" width="258" height="48" as="geometry" />
        </mxCell>
        <mxCell id="ZcbmFHMYMkMTd6hsv2YF-3" value="Syntax and Variables" style="whiteSpace=wrap;strokeWidth=2;" parent="1" vertex="1">
          <mxGeometry x="20" y="226" width="207" height="48" as="geometry" />
        </mxCell>
        <mxCell id="ZcbmFHMYMkMTd6hsv2YF-4" value="Data Types" style="whiteSpace=wrap;strokeWidth=2;" parent="1" vertex="1">
          <mxGeometry x="277" y="226" width="137" height="48" as="geometry" />
        </mxCell>
        <mxCell id="ZcbmFHMYMkMTd6hsv2YF-5" value="Basic Operators" style="whiteSpace=wrap;strokeWidth=2;" parent="1" vertex="1">
          <mxGeometry x="464" y="226" width="172" height="48" as="geometry" />
        </mxCell>
        <mxCell id="ZcbmFHMYMkMTd6hsv2YF-6" value="Control Flow Statements" style="whiteSpace=wrap;strokeWidth=2;" parent="1" vertex="1">
          <mxGeometry x="686" y="226" width="237" height="48" as="geometry" />
        </mxCell>
        <mxCell id="ZcbmFHMYMkMTd6hsv2YF-7" value="Functions" style="whiteSpace=wrap;strokeWidth=2;" parent="1" vertex="1">
          <mxGeometry x="973" y="226" width="129" height="48" as="geometry" />
        </mxCell>
        <mxCell id="ZcbmFHMYMkMTd6hsv2YF-8" value="Step 2: Learn Data Structures" style="whiteSpace=wrap;strokeWidth=2;" parent="1" vertex="1">
          <mxGeometry x="1152" y="217" width="194" height="66" as="geometry" />
        </mxCell>
        <mxCell id="ZcbmFHMYMkMTd6hsv2YF-9" value="Lists" style="whiteSpace=wrap;strokeWidth=2;" parent="1" vertex="1">
          <mxGeometry x="698" y="350" width="92" height="48" as="geometry" />
        </mxCell>
        <mxCell id="ZcbmFHMYMkMTd6hsv2YF-10" value="Tuples" style="whiteSpace=wrap;strokeWidth=2;" parent="1" vertex="1">
          <mxGeometry x="840" y="350" width="106" height="48" as="geometry" />
        </mxCell>
        <mxCell id="ZcbmFHMYMkMTd6hsv2YF-11" value="Dictionaries" style="whiteSpace=wrap;strokeWidth=2;" parent="1" vertex="1">
          <mxGeometry x="996" y="350" width="145" height="48" as="geometry" />
        </mxCell>
        <mxCell id="ZcbmFHMYMkMTd6hsv2YF-12" value="Sets" style="whiteSpace=wrap;strokeWidth=2;" parent="1" vertex="1">
          <mxGeometry x="1191" y="350" width="89" height="48" as="geometry" />
        </mxCell>
        <mxCell id="ZcbmFHMYMkMTd6hsv2YF-13" value="Step 3: Understand Object-Oriented Programming" style="whiteSpace=wrap;strokeWidth=2;" parent="1" vertex="1">
          <mxGeometry x="1330" y="333" width="197" height="84" as="geometry" />
        </mxCell>
        <mxCell id="ZcbmFHMYMkMTd6hsv2YF-14" value="Classes and Objects" style="whiteSpace=wrap;strokeWidth=2;" parent="1" vertex="1">
          <mxGeometry x="682" y="475" width="202" height="48" as="geometry" />
        </mxCell>
        <mxCell id="ZcbmFHMYMkMTd6hsv2YF-15" value="Inheritance" style="whiteSpace=wrap;strokeWidth=2;" parent="1" vertex="1">
          <mxGeometry x="934" y="475" width="142" height="48" as="geometry" />
        </mxCell>
        <mxCell id="ZcbmFHMYMkMTd6hsv2YF-16" value="Encapsulation" style="whiteSpace=wrap;strokeWidth=2;" parent="1" vertex="1">
          <mxGeometry x="1126" y="475" width="159" height="48" as="geometry" />
        </mxCell>
        <mxCell id="ZcbmFHMYMkMTd6hsv2YF-17" value="Polymorphism" style="whiteSpace=wrap;strokeWidth=2;" parent="1" vertex="1">
          <mxGeometry x="1335" y="475" width="159" height="48" as="geometry" />
        </mxCell>
        <mxCell id="ZcbmFHMYMkMTd6hsv2YF-18" value="Step 4: Master Python Modules and Libraries" style="whiteSpace=wrap;strokeWidth=2;" parent="1" vertex="1">
          <mxGeometry x="1544" y="466" width="217" height="66" as="geometry" />
        </mxCell>
        <mxCell id="ZcbmFHMYMkMTd6hsv2YF-19" value="Standard Libraries" style="whiteSpace=wrap;strokeWidth=2;" parent="1" vertex="1">
          <mxGeometry x="1059" y="591" width="191" height="48" as="geometry" />
        </mxCell>
        <mxCell id="ZcbmFHMYMkMTd6hsv2YF-20" value="Popular Libraries" style="whiteSpace=wrap;strokeWidth=2;" parent="1" vertex="1">
          <mxGeometry x="1299" y="591" width="181" height="48" as="geometry" />
        </mxCell>
        <mxCell id="ZcbmFHMYMkMTd6hsv2YF-21" value="Virtual Environments" style="whiteSpace=wrap;strokeWidth=2;" parent="1" vertex="1">
          <mxGeometry x="1530" y="591" width="211" height="48" as="geometry" />
        </mxCell>
        <mxCell id="ZcbmFHMYMkMTd6hsv2YF-22" value="Step 5: Work with File and Exception Handling" style="whiteSpace=wrap;strokeWidth=2;" parent="1" vertex="1">
          <mxGeometry x="1791" y="582" width="250" height="66" as="geometry" />
        </mxCell>
        <mxCell id="ZcbmFHMYMkMTd6hsv2YF-23" value="File Reading/Writing" style="whiteSpace=wrap;strokeWidth=2;" parent="1" vertex="1">
          <mxGeometry x="1367" y="707" width="207" height="48" as="geometry" />
        </mxCell>
        <mxCell id="ZcbmFHMYMkMTd6hsv2YF-24" value="Error Handling" style="whiteSpace=wrap;strokeWidth=2;" parent="1" vertex="1">
          <mxGeometry x="1624" y="707" width="163" height="48" as="geometry" />
        </mxCell>
        <mxCell id="ZcbmFHMYMkMTd6hsv2YF-25" value="Logging" style="whiteSpace=wrap;strokeWidth=2;" parent="1" vertex="1">
          <mxGeometry x="1837" y="707" width="114" height="48" as="geometry" />
        </mxCell>
        <mxCell id="ZcbmFHMYMkMTd6hsv2YF-26" value="Step 6: Explore Functional Programming" style="whiteSpace=wrap;strokeWidth=2;" parent="1" vertex="1">
          <mxGeometry x="2001" y="698" width="249" height="66" as="geometry" />
        </mxCell>
        <mxCell id="ZcbmFHMYMkMTd6hsv2YF-27" value="Lambda Functions" style="whiteSpace=wrap;strokeWidth=2;" parent="1" vertex="1">
          <mxGeometry x="1527" y="823" width="189" height="48" as="geometry" />
        </mxCell>
        <mxCell id="ZcbmFHMYMkMTd6hsv2YF-28" value="Map, Filter, Reduce" style="whiteSpace=wrap;strokeWidth=2;" parent="1" vertex="1">
          <mxGeometry x="1766" y="823" width="199" height="48" as="geometry" />
        </mxCell>
        <mxCell id="ZcbmFHMYMkMTd6hsv2YF-29" value="List Comprehensions" style="whiteSpace=wrap;strokeWidth=2;" parent="1" vertex="1">
          <mxGeometry x="2015" y="823" width="207" height="48" as="geometry" />
        </mxCell>
        <mxCell id="ZcbmFHMYMkMTd6hsv2YF-30" value="Step 7: Study Advanced Topics" style="whiteSpace=wrap;strokeWidth=2;" parent="1" vertex="1">
          <mxGeometry x="2272" y="814" width="228" height="66" as="geometry" />
        </mxCell>
        <mxCell id="ZcbmFHMYMkMTd6hsv2YF-31" value="Decorators" style="whiteSpace=wrap;strokeWidth=2;" parent="1" vertex="1">
          <mxGeometry x="1888" y="939" width="137" height="48" as="geometry" />
        </mxCell>
        <mxCell id="ZcbmFHMYMkMTd6hsv2YF-32" value="Generators" style="whiteSpace=wrap;strokeWidth=2;" parent="1" vertex="1">
          <mxGeometry x="2075" y="939" width="139" height="48" as="geometry" />
        </mxCell>
        <mxCell id="ZcbmFHMYMkMTd6hsv2YF-33" value="Context Managers" style="whiteSpace=wrap;strokeWidth=2;" parent="1" vertex="1">
          <mxGeometry x="2264" y="939" width="188" height="48" as="geometry" />
        </mxCell>
        <mxCell id="ZcbmFHMYMkMTd6hsv2YF-34" value="Step 8: Work with APIs and Web Requests" style="whiteSpace=wrap;strokeWidth=2;" parent="1" vertex="1">
          <mxGeometry x="2502" y="930" width="252" height="66" as="geometry" />
        </mxCell>
        <mxCell id="ZcbmFHMYMkMTd6hsv2YF-35" value="HTTP Requests" style="whiteSpace=wrap;strokeWidth=2;" parent="1" vertex="1">
          <mxGeometry x="2119" y="1055" width="166" height="48" as="geometry" />
        </mxCell>
        <mxCell id="ZcbmFHMYMkMTd6hsv2YF-36" value="RESTful APIs" style="whiteSpace=wrap;strokeWidth=2;" parent="1" vertex="1">
          <mxGeometry x="2335" y="1055" width="147" height="48" as="geometry" />
        </mxCell>
        <mxCell id="ZcbmFHMYMkMTd6hsv2YF-37" value="JSON Handling" style="whiteSpace=wrap;strokeWidth=2;" parent="1" vertex="1">
          <mxGeometry x="2532" y="1055" width="164" height="48" as="geometry" />
        </mxCell>
        <mxCell id="ZcbmFHMYMkMTd6hsv2YF-38" value="Step 9: Learn Web Development Basics" style="whiteSpace=wrap;strokeWidth=2;" parent="1" vertex="1">
          <mxGeometry x="2746" y="1046" width="202" height="66" as="geometry" />
        </mxCell>
        <mxCell id="ZcbmFHMYMkMTd6hsv2YF-39" value="Flask" style="whiteSpace=wrap;strokeWidth=2;" parent="1" vertex="1">
          <mxGeometry x="2538" y="1180" width="97" height="48" as="geometry" />
        </mxCell>
        <mxCell id="ZcbmFHMYMkMTd6hsv2YF-40" value="Django" style="whiteSpace=wrap;strokeWidth=2;" parent="1" vertex="1">
          <mxGeometry x="2685" y="1180" width="110" height="48" as="geometry" />
        </mxCell>
        <mxCell id="ZcbmFHMYMkMTd6hsv2YF-41" value="Step 10: Practice Data Science and Machine Learning" style="whiteSpace=wrap;strokeWidth=2;" parent="1" vertex="1">
          <mxGeometry x="2844" y="1162" width="220" height="84" as="geometry" />
        </mxCell>
        <mxCell id="ZcbmFHMYMkMTd6hsv2YF-42" value="Pandas for Data Analysis" style="whiteSpace=wrap;strokeWidth=2;" parent="1" vertex="1">
          <mxGeometry x="2290" y="1305" width="233" height="48" as="geometry" />
        </mxCell>
        <mxCell id="ZcbmFHMYMkMTd6hsv2YF-43" value="Data Visualization" style="whiteSpace=wrap;strokeWidth=2;" parent="1" vertex="1">
          <mxGeometry x="2573" y="1305" width="189" height="48" as="geometry" />
        </mxCell>
        <mxCell id="ZcbmFHMYMkMTd6hsv2YF-44" value="Machine Learning Libraries" style="whiteSpace=wrap;strokeWidth=2;" parent="1" vertex="1">
          <mxGeometry x="2812" y="1305" width="253" height="48" as="geometry" />
        </mxCell>
        <mxCell id="ZcbmFHMYMkMTd6hsv2YF-45" value="Step 11: Build Projects and Practice" style="whiteSpace=wrap;strokeWidth=2;" parent="1" vertex="1">
          <mxGeometry x="3114" y="1296" width="254" height="66" as="geometry" />
        </mxCell>
        <mxCell id="ZcbmFHMYMkMTd6hsv2YF-46" value="Small Projects" style="whiteSpace=wrap;strokeWidth=2;" parent="1" vertex="1">
          <mxGeometry x="2631" y="1421" width="162" height="48" as="geometry" />
        </mxCell>
        <mxCell id="ZcbmFHMYMkMTd6hsv2YF-47" value="Real-World Applications" style="whiteSpace=wrap;strokeWidth=2;" parent="1" vertex="1">
          <mxGeometry x="2842" y="1421" width="229" height="48" as="geometry" />
        </mxCell>
        <mxCell id="ZcbmFHMYMkMTd6hsv2YF-48" value="Open-Source Contributions" style="whiteSpace=wrap;strokeWidth=2;" parent="1" vertex="1">
          <mxGeometry x="3122" y="1421" width="252" height="48" as="geometry" />
        </mxCell>
        <mxCell id="ZcbmFHMYMkMTd6hsv2YF-49" value="Step 12: Continuous Learning" style="whiteSpace=wrap;strokeWidth=2;" parent="1" vertex="1">
          <mxGeometry x="3424" y="1412" width="203" height="66" as="geometry" />
        </mxCell>
        <mxCell id="ZcbmFHMYMkMTd6hsv2YF-50" value="Stay Updated with Libraries" style="whiteSpace=wrap;strokeWidth=2;" parent="1" vertex="1">
          <mxGeometry x="2863" y="1528" width="259" height="48" as="geometry" />
        </mxCell>
        <mxCell id="ZcbmFHMYMkMTd6hsv2YF-51" value="Join Python Communities" style="whiteSpace=wrap;strokeWidth=2;" parent="1" vertex="1">
          <mxGeometry x="3172" y="1528" width="241" height="48" as="geometry" />
        </mxCell>
        <mxCell id="ZcbmFHMYMkMTd6hsv2YF-52" value="Attend Conferences" style="whiteSpace=wrap;strokeWidth=2;" parent="1" vertex="1">
          <mxGeometry x="3463" y="1528" width="202" height="48" as="geometry" />
        </mxCell>
        <mxCell id="ZcbmFHMYMkMTd6hsv2YF-53" value="End" style="whiteSpace=wrap;strokeWidth=2;" parent="1" vertex="1">
          <mxGeometry x="3715" y="1528" width="86" height="48" as="geometry" />
        </mxCell>
        <mxCell id="ZcbmFHMYMkMTd6hsv2YF-54" value="" style="curved=1;startArrow=none;endArrow=block;exitX=0.51;exitY=1.01;entryX=0.5;entryY=0.01;rounded=0;" parent="1" source="ZcbmFHMYMkMTd6hsv2YF-1" target="ZcbmFHMYMkMTd6hsv2YF-2" edge="1">
          <mxGeometry relative="1" as="geometry">
            <Array as="points" />
          </mxGeometry>
        </mxCell>
        <mxCell id="ZcbmFHMYMkMTd6hsv2YF-55" value="" style="curved=1;startArrow=none;endArrow=block;exitX=0.09;exitY=1.02;entryX=0.5;entryY=-0.01;rounded=0;" parent="1" source="ZcbmFHMYMkMTd6hsv2YF-2" target="ZcbmFHMYMkMTd6hsv2YF-3" edge="1">
          <mxGeometry relative="1" as="geometry">
            <Array as="points">
              <mxPoint x="124" y="192" />
            </Array>
          </mxGeometry>
        </mxCell>
        <mxCell id="ZcbmFHMYMkMTd6hsv2YF-56" value="" style="curved=1;startArrow=none;endArrow=block;exitX=0.52;exitY=1.02;entryX=0.5;entryY=-0.01;rounded=0;" parent="1" source="ZcbmFHMYMkMTd6hsv2YF-2" target="ZcbmFHMYMkMTd6hsv2YF-4" edge="1">
          <mxGeometry relative="1" as="geometry">
            <Array as="points">
              <mxPoint x="346" y="192" />
            </Array>
          </mxGeometry>
        </mxCell>
        <mxCell id="ZcbmFHMYMkMTd6hsv2YF-57" value="" style="curved=1;startArrow=none;endArrow=block;exitX=0.91;exitY=1.02;entryX=0.5;entryY=-0.01;rounded=0;" parent="1" source="ZcbmFHMYMkMTd6hsv2YF-2" target="ZcbmFHMYMkMTd6hsv2YF-5" edge="1">
          <mxGeometry relative="1" as="geometry">
            <Array as="points">
              <mxPoint x="550" y="192" />
            </Array>
          </mxGeometry>
        </mxCell>
        <mxCell id="ZcbmFHMYMkMTd6hsv2YF-58" value="" style="curved=1;startArrow=none;endArrow=block;exitX=1;exitY=0.79;entryX=0.5;entryY=-0.01;rounded=0;" parent="1" source="ZcbmFHMYMkMTd6hsv2YF-2" target="ZcbmFHMYMkMTd6hsv2YF-6" edge="1">
          <mxGeometry relative="1" as="geometry">
            <Array as="points">
              <mxPoint x="805" y="192" />
            </Array>
          </mxGeometry>
        </mxCell>
        <mxCell id="ZcbmFHMYMkMTd6hsv2YF-59" value="" style="curved=1;startArrow=none;endArrow=block;exitX=1;exitY=0.7;entryX=0.5;entryY=-0.01;rounded=0;" parent="1" source="ZcbmFHMYMkMTd6hsv2YF-2" target="ZcbmFHMYMkMTd6hsv2YF-7" edge="1">
          <mxGeometry relative="1" as="geometry">
            <Array as="points">
              <mxPoint x="1038" y="192" />
            </Array>
          </mxGeometry>
        </mxCell>
        <mxCell id="ZcbmFHMYMkMTd6hsv2YF-60" value="" style="curved=1;startArrow=none;endArrow=block;exitX=1;exitY=0.66;entryX=0.5;entryY=0;rounded=0;" parent="1" source="ZcbmFHMYMkMTd6hsv2YF-2" target="ZcbmFHMYMkMTd6hsv2YF-8" edge="1">
          <mxGeometry relative="1" as="geometry">
            <Array as="points">
              <mxPoint x="1249" y="192" />
            </Array>
          </mxGeometry>
        </mxCell>
        <mxCell id="ZcbmFHMYMkMTd6hsv2YF-61" value="" style="curved=1;startArrow=none;endArrow=block;exitX=0;exitY=0.67;entryX=0.5;entryY=0.01;rounded=0;" parent="1" source="ZcbmFHMYMkMTd6hsv2YF-8" target="ZcbmFHMYMkMTd6hsv2YF-9" edge="1">
          <mxGeometry relative="1" as="geometry">
            <Array as="points">
              <mxPoint x="744" y="308" />
            </Array>
          </mxGeometry>
        </mxCell>
        <mxCell id="ZcbmFHMYMkMTd6hsv2YF-62" value="" style="curved=1;startArrow=none;endArrow=block;exitX=0;exitY=0.74;entryX=0.5;entryY=0.01;rounded=0;" parent="1" source="ZcbmFHMYMkMTd6hsv2YF-8" target="ZcbmFHMYMkMTd6hsv2YF-10" edge="1">
          <mxGeometry relative="1" as="geometry">
            <Array as="points">
              <mxPoint x="893" y="308" />
            </Array>
          </mxGeometry>
        </mxCell>
        <mxCell id="ZcbmFHMYMkMTd6hsv2YF-63" value="" style="curved=1;startArrow=none;endArrow=block;exitX=0;exitY=0.97;entryX=0.5;entryY=0.01;rounded=0;" parent="1" source="ZcbmFHMYMkMTd6hsv2YF-8" target="ZcbmFHMYMkMTd6hsv2YF-11" edge="1">
          <mxGeometry relative="1" as="geometry">
            <Array as="points">
              <mxPoint x="1069" y="308" />
            </Array>
          </mxGeometry>
        </mxCell>
        <mxCell id="ZcbmFHMYMkMTd6hsv2YF-64" value="" style="curved=1;startArrow=none;endArrow=block;exitX=0.46;exitY=1;entryX=0.5;entryY=0.01;rounded=0;" parent="1" source="ZcbmFHMYMkMTd6hsv2YF-8" target="ZcbmFHMYMkMTd6hsv2YF-12" edge="1">
          <mxGeometry relative="1" as="geometry">
            <Array as="points">
              <mxPoint x="1236" y="308" />
            </Array>
          </mxGeometry>
        </mxCell>
        <mxCell id="ZcbmFHMYMkMTd6hsv2YF-65" value="" style="curved=1;startArrow=none;endArrow=block;exitX=1;exitY=0.97;entryX=0.5;entryY=0;rounded=0;" parent="1" source="ZcbmFHMYMkMTd6hsv2YF-8" target="ZcbmFHMYMkMTd6hsv2YF-13" edge="1">
          <mxGeometry relative="1" as="geometry">
            <Array as="points">
              <mxPoint x="1429" y="308" />
            </Array>
          </mxGeometry>
        </mxCell>
        <mxCell id="ZcbmFHMYMkMTd6hsv2YF-66" value="" style="curved=1;startArrow=none;endArrow=block;exitX=0;exitY=0.62;entryX=0.5;entryY=0;rounded=0;" parent="1" source="ZcbmFHMYMkMTd6hsv2YF-13" target="ZcbmFHMYMkMTd6hsv2YF-14" edge="1">
          <mxGeometry relative="1" as="geometry">
            <Array as="points">
              <mxPoint x="783" y="441" />
            </Array>
          </mxGeometry>
        </mxCell>
        <mxCell id="ZcbmFHMYMkMTd6hsv2YF-67" value="" style="curved=1;startArrow=none;endArrow=block;exitX=0;exitY=0.68;entryX=0.5;entryY=0;rounded=0;" parent="1" source="ZcbmFHMYMkMTd6hsv2YF-13" target="ZcbmFHMYMkMTd6hsv2YF-15" edge="1">
          <mxGeometry relative="1" as="geometry">
            <Array as="points">
              <mxPoint x="1005" y="441" />
            </Array>
          </mxGeometry>
        </mxCell>
        <mxCell id="ZcbmFHMYMkMTd6hsv2YF-68" value="" style="curved=1;startArrow=none;endArrow=block;exitX=0;exitY=0.85;entryX=0.5;entryY=0;rounded=0;" parent="1" source="ZcbmFHMYMkMTd6hsv2YF-13" target="ZcbmFHMYMkMTd6hsv2YF-16" edge="1">
          <mxGeometry relative="1" as="geometry">
            <Array as="points">
              <mxPoint x="1205" y="441" />
            </Array>
          </mxGeometry>
        </mxCell>
        <mxCell id="ZcbmFHMYMkMTd6hsv2YF-69" value="" style="curved=1;startArrow=none;endArrow=block;exitX=0.46;exitY=0.99;entryX=0.5;entryY=0;rounded=0;" parent="1" source="ZcbmFHMYMkMTd6hsv2YF-13" target="ZcbmFHMYMkMTd6hsv2YF-17" edge="1">
          <mxGeometry relative="1" as="geometry">
            <Array as="points">
              <mxPoint x="1414" y="441" />
            </Array>
          </mxGeometry>
        </mxCell>
        <mxCell id="ZcbmFHMYMkMTd6hsv2YF-70" value="" style="curved=1;startArrow=none;endArrow=block;exitX=1;exitY=0.85;entryX=0.5;entryY=0.01;rounded=0;" parent="1" source="ZcbmFHMYMkMTd6hsv2YF-13" target="ZcbmFHMYMkMTd6hsv2YF-18" edge="1">
          <mxGeometry relative="1" as="geometry">
            <Array as="points">
              <mxPoint x="1653" y="441" />
            </Array>
          </mxGeometry>
        </mxCell>
        <mxCell id="ZcbmFHMYMkMTd6hsv2YF-71" value="" style="curved=1;startArrow=none;endArrow=block;exitX=0;exitY=0.7;entryX=0.5;entryY=0;rounded=0;" parent="1" source="ZcbmFHMYMkMTd6hsv2YF-18" target="ZcbmFHMYMkMTd6hsv2YF-19" edge="1">
          <mxGeometry relative="1" as="geometry">
            <Array as="points">
              <mxPoint x="1154" y="557" />
            </Array>
          </mxGeometry>
        </mxCell>
        <mxCell id="ZcbmFHMYMkMTd6hsv2YF-72" value="" style="curved=1;startArrow=none;endArrow=block;exitX=0;exitY=0.87;entryX=0.5;entryY=0;rounded=0;" parent="1" source="ZcbmFHMYMkMTd6hsv2YF-18" target="ZcbmFHMYMkMTd6hsv2YF-20" edge="1">
          <mxGeometry relative="1" as="geometry">
            <Array as="points">
              <mxPoint x="1390" y="557" />
            </Array>
          </mxGeometry>
        </mxCell>
        <mxCell id="ZcbmFHMYMkMTd6hsv2YF-73" value="" style="curved=1;startArrow=none;endArrow=block;exitX=0.46;exitY=1.01;entryX=0.5;entryY=0;rounded=0;" parent="1" source="ZcbmFHMYMkMTd6hsv2YF-18" target="ZcbmFHMYMkMTd6hsv2YF-21" edge="1">
          <mxGeometry relative="1" as="geometry">
            <Array as="points">
              <mxPoint x="1635" y="557" />
            </Array>
          </mxGeometry>
        </mxCell>
        <mxCell id="ZcbmFHMYMkMTd6hsv2YF-74" value="" style="curved=1;startArrow=none;endArrow=block;exitX=1;exitY=0.87;entryX=0.5;entryY=0.01;rounded=0;" parent="1" source="ZcbmFHMYMkMTd6hsv2YF-18" target="ZcbmFHMYMkMTd6hsv2YF-22" edge="1">
          <mxGeometry relative="1" as="geometry">
            <Array as="points">
              <mxPoint x="1916" y="557" />
            </Array>
          </mxGeometry>
        </mxCell>
        <mxCell id="ZcbmFHMYMkMTd6hsv2YF-75" value="" style="curved=1;startArrow=none;endArrow=block;exitX=0;exitY=0.75;entryX=0.5;entryY=0;rounded=0;" parent="1" source="ZcbmFHMYMkMTd6hsv2YF-22" target="ZcbmFHMYMkMTd6hsv2YF-23" edge="1">
          <mxGeometry relative="1" as="geometry">
            <Array as="points">
              <mxPoint x="1470" y="673" />
            </Array>
          </mxGeometry>
        </mxCell>
        <mxCell id="ZcbmFHMYMkMTd6hsv2YF-76" value="" style="curved=1;startArrow=none;endArrow=block;exitX=0.02;exitY=1.01;entryX=0.5;entryY=0;rounded=0;" parent="1" source="ZcbmFHMYMkMTd6hsv2YF-22" target="ZcbmFHMYMkMTd6hsv2YF-24" edge="1">
          <mxGeometry relative="1" as="geometry">
            <Array as="points">
              <mxPoint x="1705" y="673" />
            </Array>
          </mxGeometry>
        </mxCell>
        <mxCell id="ZcbmFHMYMkMTd6hsv2YF-77" value="" style="curved=1;startArrow=none;endArrow=block;exitX=0.45;exitY=1.01;entryX=0.5;entryY=0;rounded=0;" parent="1" source="ZcbmFHMYMkMTd6hsv2YF-22" target="ZcbmFHMYMkMTd6hsv2YF-25" edge="1">
          <mxGeometry relative="1" as="geometry">
            <Array as="points">
              <mxPoint x="1894" y="673" />
            </Array>
          </mxGeometry>
        </mxCell>
        <mxCell id="ZcbmFHMYMkMTd6hsv2YF-78" value="" style="curved=1;startArrow=none;endArrow=block;exitX=0.98;exitY=1.01;entryX=0.5;entryY=0.01;rounded=0;" parent="1" source="ZcbmFHMYMkMTd6hsv2YF-22" target="ZcbmFHMYMkMTd6hsv2YF-26" edge="1">
          <mxGeometry relative="1" as="geometry">
            <Array as="points">
              <mxPoint x="2126" y="673" />
            </Array>
          </mxGeometry>
        </mxCell>
        <mxCell id="ZcbmFHMYMkMTd6hsv2YF-79" value="" style="curved=1;startArrow=none;endArrow=block;exitX=0;exitY=0.72;entryX=0.5;entryY=0;rounded=0;" parent="1" source="ZcbmFHMYMkMTd6hsv2YF-26" target="ZcbmFHMYMkMTd6hsv2YF-27" edge="1">
          <mxGeometry relative="1" as="geometry">
            <Array as="points">
              <mxPoint x="1621" y="789" />
            </Array>
          </mxGeometry>
        </mxCell>
        <mxCell id="ZcbmFHMYMkMTd6hsv2YF-80" value="" style="curved=1;startArrow=none;endArrow=block;exitX=0;exitY=0.93;entryX=0.5;entryY=0;rounded=0;" parent="1" source="ZcbmFHMYMkMTd6hsv2YF-26" target="ZcbmFHMYMkMTd6hsv2YF-28" edge="1">
          <mxGeometry relative="1" as="geometry">
            <Array as="points">
              <mxPoint x="1866" y="789" />
            </Array>
          </mxGeometry>
        </mxCell>
        <mxCell id="ZcbmFHMYMkMTd6hsv2YF-81" value="" style="curved=1;startArrow=none;endArrow=block;exitX=0.49;exitY=1.01;entryX=0.5;entryY=0;rounded=0;" parent="1" source="ZcbmFHMYMkMTd6hsv2YF-26" target="ZcbmFHMYMkMTd6hsv2YF-29" edge="1">
          <mxGeometry relative="1" as="geometry">
            <Array as="points">
              <mxPoint x="2119" y="789" />
            </Array>
          </mxGeometry>
        </mxCell>
        <mxCell id="ZcbmFHMYMkMTd6hsv2YF-82" value="" style="curved=1;startArrow=none;endArrow=block;exitX=1;exitY=0.93;entryX=0.5;entryY=0.01;rounded=0;" parent="1" source="ZcbmFHMYMkMTd6hsv2YF-26" target="ZcbmFHMYMkMTd6hsv2YF-30" edge="1">
          <mxGeometry relative="1" as="geometry">
            <Array as="points">
              <mxPoint x="2386" y="789" />
            </Array>
          </mxGeometry>
        </mxCell>
        <mxCell id="ZcbmFHMYMkMTd6hsv2YF-83" value="" style="curved=1;startArrow=none;endArrow=block;exitX=0;exitY=0.74;entryX=0.5;entryY=0;rounded=0;" parent="1" source="ZcbmFHMYMkMTd6hsv2YF-30" target="ZcbmFHMYMkMTd6hsv2YF-31" edge="1">
          <mxGeometry relative="1" as="geometry">
            <Array as="points">
              <mxPoint x="1956" y="905" />
            </Array>
          </mxGeometry>
        </mxCell>
        <mxCell id="ZcbmFHMYMkMTd6hsv2YF-84" value="" style="curved=1;startArrow=none;endArrow=block;exitX=0;exitY=0.92;entryX=0.5;entryY=0;rounded=0;" parent="1" source="ZcbmFHMYMkMTd6hsv2YF-30" target="ZcbmFHMYMkMTd6hsv2YF-32" edge="1">
          <mxGeometry relative="1" as="geometry">
            <Array as="points">
              <mxPoint x="2145" y="905" />
            </Array>
          </mxGeometry>
        </mxCell>
        <mxCell id="ZcbmFHMYMkMTd6hsv2YF-85" value="" style="curved=1;startArrow=none;endArrow=block;exitX=0.43;exitY=1.01;entryX=0.5;entryY=0;rounded=0;" parent="1" source="ZcbmFHMYMkMTd6hsv2YF-30" target="ZcbmFHMYMkMTd6hsv2YF-33" edge="1">
          <mxGeometry relative="1" as="geometry">
            <Array as="points">
              <mxPoint x="2358" y="905" />
            </Array>
          </mxGeometry>
        </mxCell>
        <mxCell id="ZcbmFHMYMkMTd6hsv2YF-86" value="" style="curved=1;startArrow=none;endArrow=block;exitX=1;exitY=0.92;entryX=0.5;entryY=0.01;rounded=0;" parent="1" source="ZcbmFHMYMkMTd6hsv2YF-30" target="ZcbmFHMYMkMTd6hsv2YF-34" edge="1">
          <mxGeometry relative="1" as="geometry">
            <Array as="points">
              <mxPoint x="2628" y="905" />
            </Array>
          </mxGeometry>
        </mxCell>
        <mxCell id="ZcbmFHMYMkMTd6hsv2YF-87" value="" style="curved=1;startArrow=none;endArrow=block;exitX=0;exitY=0.77;entryX=0.5;entryY=0;rounded=0;" parent="1" source="ZcbmFHMYMkMTd6hsv2YF-34" target="ZcbmFHMYMkMTd6hsv2YF-35" edge="1">
          <mxGeometry relative="1" as="geometry">
            <Array as="points">
              <mxPoint x="2202" y="1021" />
            </Array>
          </mxGeometry>
        </mxCell>
        <mxCell id="ZcbmFHMYMkMTd6hsv2YF-88" value="" style="curved=1;startArrow=none;endArrow=block;exitX=0;exitY=1.01;entryX=0.5;entryY=0;rounded=0;" parent="1" source="ZcbmFHMYMkMTd6hsv2YF-34" target="ZcbmFHMYMkMTd6hsv2YF-36" edge="1">
          <mxGeometry relative="1" as="geometry">
            <Array as="points">
              <mxPoint x="2408" y="1021" />
            </Array>
          </mxGeometry>
        </mxCell>
        <mxCell id="ZcbmFHMYMkMTd6hsv2YF-89" value="" style="curved=1;startArrow=none;endArrow=block;exitX=0.47;exitY=1.01;entryX=0.5;entryY=0;rounded=0;" parent="1" source="ZcbmFHMYMkMTd6hsv2YF-34" target="ZcbmFHMYMkMTd6hsv2YF-37" edge="1">
          <mxGeometry relative="1" as="geometry">
            <Array as="points">
              <mxPoint x="2614" y="1021" />
            </Array>
          </mxGeometry>
        </mxCell>
        <mxCell id="ZcbmFHMYMkMTd6hsv2YF-90" value="" style="curved=1;startArrow=none;endArrow=block;exitX=0.99;exitY=1.01;entryX=0.5;entryY=0.01;rounded=0;" parent="1" source="ZcbmFHMYMkMTd6hsv2YF-34" target="ZcbmFHMYMkMTd6hsv2YF-38" edge="1">
          <mxGeometry relative="1" as="geometry">
            <Array as="points">
              <mxPoint x="2847" y="1021" />
            </Array>
          </mxGeometry>
        </mxCell>
        <mxCell id="ZcbmFHMYMkMTd6hsv2YF-91" value="" style="curved=1;startArrow=none;endArrow=block;exitX=0;exitY=0.85;entryX=0.5;entryY=0;rounded=0;" parent="1" source="ZcbmFHMYMkMTd6hsv2YF-38" target="ZcbmFHMYMkMTd6hsv2YF-39" edge="1">
          <mxGeometry relative="1" as="geometry">
            <Array as="points">
              <mxPoint x="2586" y="1137" />
            </Array>
          </mxGeometry>
        </mxCell>
        <mxCell id="ZcbmFHMYMkMTd6hsv2YF-92" value="" style="curved=1;startArrow=none;endArrow=block;exitX=0.2;exitY=1.01;entryX=0.49;entryY=0;rounded=0;" parent="1" source="ZcbmFHMYMkMTd6hsv2YF-38" target="ZcbmFHMYMkMTd6hsv2YF-40" edge="1">
          <mxGeometry relative="1" as="geometry">
            <Array as="points">
              <mxPoint x="2739" y="1137" />
            </Array>
          </mxGeometry>
        </mxCell>
        <mxCell id="ZcbmFHMYMkMTd6hsv2YF-93" value="" style="curved=1;startArrow=none;endArrow=block;exitX=0.8;exitY=1.01;entryX=0.5;entryY=0;rounded=0;" parent="1" source="ZcbmFHMYMkMTd6hsv2YF-38" target="ZcbmFHMYMkMTd6hsv2YF-41" edge="1">
          <mxGeometry relative="1" as="geometry">
            <Array as="points">
              <mxPoint x="2954" y="1137" />
            </Array>
          </mxGeometry>
        </mxCell>
        <mxCell id="ZcbmFHMYMkMTd6hsv2YF-94" value="" style="curved=1;startArrow=none;endArrow=block;exitX=0;exitY=0.66;entryX=0.5;entryY=0;rounded=0;" parent="1" source="ZcbmFHMYMkMTd6hsv2YF-41" target="ZcbmFHMYMkMTd6hsv2YF-42" edge="1">
          <mxGeometry relative="1" as="geometry">
            <Array as="points">
              <mxPoint x="2406" y="1271" />
            </Array>
          </mxGeometry>
        </mxCell>
        <mxCell id="ZcbmFHMYMkMTd6hsv2YF-95" value="" style="curved=1;startArrow=none;endArrow=block;exitX=0;exitY=0.81;entryX=0.5;entryY=0;rounded=0;" parent="1" source="ZcbmFHMYMkMTd6hsv2YF-41" target="ZcbmFHMYMkMTd6hsv2YF-43" edge="1">
          <mxGeometry relative="1" as="geometry">
            <Array as="points">
              <mxPoint x="2667" y="1271" />
            </Array>
          </mxGeometry>
        </mxCell>
        <mxCell id="ZcbmFHMYMkMTd6hsv2YF-96" value="" style="curved=1;startArrow=none;endArrow=block;exitX=0.45;exitY=1;entryX=0.5;entryY=0;rounded=0;" parent="1" source="ZcbmFHMYMkMTd6hsv2YF-41" target="ZcbmFHMYMkMTd6hsv2YF-44" edge="1">
          <mxGeometry relative="1" as="geometry">
            <Array as="points">
              <mxPoint x="2938" y="1271" />
            </Array>
          </mxGeometry>
        </mxCell>
        <mxCell id="ZcbmFHMYMkMTd6hsv2YF-97" value="" style="curved=1;startArrow=none;endArrow=block;exitX=1;exitY=0.81;entryX=0.5;entryY=0;rounded=0;" parent="1" source="ZcbmFHMYMkMTd6hsv2YF-41" target="ZcbmFHMYMkMTd6hsv2YF-45" edge="1">
          <mxGeometry relative="1" as="geometry">
            <Array as="points">
              <mxPoint x="3241" y="1271" />
            </Array>
          </mxGeometry>
        </mxCell>
        <mxCell id="ZcbmFHMYMkMTd6hsv2YF-98" value="" style="curved=1;startArrow=none;endArrow=block;exitX=0;exitY=0.71;entryX=0.5;entryY=0;rounded=0;" parent="1" source="ZcbmFHMYMkMTd6hsv2YF-45" target="ZcbmFHMYMkMTd6hsv2YF-46" edge="1">
          <mxGeometry relative="1" as="geometry">
            <Array as="points">
              <mxPoint x="2712" y="1387" />
            </Array>
          </mxGeometry>
        </mxCell>
        <mxCell id="ZcbmFHMYMkMTd6hsv2YF-99" value="" style="curved=1;startArrow=none;endArrow=block;exitX=0;exitY=0.89;entryX=0.5;entryY=0;rounded=0;" parent="1" source="ZcbmFHMYMkMTd6hsv2YF-45" target="ZcbmFHMYMkMTd6hsv2YF-47" edge="1">
          <mxGeometry relative="1" as="geometry">
            <Array as="points">
              <mxPoint x="2957" y="1387" />
            </Array>
          </mxGeometry>
        </mxCell>
        <mxCell id="ZcbmFHMYMkMTd6hsv2YF-100" value="" style="curved=1;startArrow=none;endArrow=block;exitX=0.52;exitY=1;entryX=0.5;entryY=0;rounded=0;" parent="1" source="ZcbmFHMYMkMTd6hsv2YF-45" target="ZcbmFHMYMkMTd6hsv2YF-48" edge="1">
          <mxGeometry relative="1" as="geometry">
            <Array as="points">
              <mxPoint x="3248" y="1387" />
            </Array>
          </mxGeometry>
        </mxCell>
        <mxCell id="ZcbmFHMYMkMTd6hsv2YF-101" value="" style="curved=1;startArrow=none;endArrow=block;exitX=1;exitY=0.89;entryX=0.5;entryY=0;rounded=0;" parent="1" source="ZcbmFHMYMkMTd6hsv2YF-45" target="ZcbmFHMYMkMTd6hsv2YF-49" edge="1">
          <mxGeometry relative="1" as="geometry">
            <Array as="points">
              <mxPoint x="3525" y="1387" />
            </Array>
          </mxGeometry>
        </mxCell>
        <mxCell id="ZcbmFHMYMkMTd6hsv2YF-102" value="" style="curved=1;startArrow=none;endArrow=block;exitX=0;exitY=0.67;entryX=0.5;entryY=0;rounded=0;" parent="1" source="ZcbmFHMYMkMTd6hsv2YF-49" target="ZcbmFHMYMkMTd6hsv2YF-50" edge="1">
          <mxGeometry relative="1" as="geometry">
            <Array as="points">
              <mxPoint x="2992" y="1503" />
            </Array>
          </mxGeometry>
        </mxCell>
        <mxCell id="ZcbmFHMYMkMTd6hsv2YF-103" value="" style="curved=1;startArrow=none;endArrow=block;exitX=0;exitY=0.88;entryX=0.5;entryY=0;rounded=0;" parent="1" source="ZcbmFHMYMkMTd6hsv2YF-49" target="ZcbmFHMYMkMTd6hsv2YF-51" edge="1">
          <mxGeometry relative="1" as="geometry">
            <Array as="points">
              <mxPoint x="3292" y="1503" />
            </Array>
          </mxGeometry>
        </mxCell>
        <mxCell id="ZcbmFHMYMkMTd6hsv2YF-104" value="" style="curved=1;startArrow=none;endArrow=block;exitX=0.61;exitY=1;entryX=0.5;entryY=0;rounded=0;" parent="1" source="ZcbmFHMYMkMTd6hsv2YF-49" target="ZcbmFHMYMkMTd6hsv2YF-52" edge="1">
          <mxGeometry relative="1" as="geometry">
            <Array as="points">
              <mxPoint x="3564" y="1503" />
            </Array>
          </mxGeometry>
        </mxCell>
        <mxCell id="ZcbmFHMYMkMTd6hsv2YF-105" value="" style="curved=1;startArrow=none;endArrow=block;exitX=1;exitY=0.88;entryX=0.51;entryY=0;rounded=0;" parent="1" source="ZcbmFHMYMkMTd6hsv2YF-49" target="ZcbmFHMYMkMTd6hsv2YF-53" edge="1">
          <mxGeometry relative="1" as="geometry">
            <Array as="points">
              <mxPoint x="3759" y="1503" />
            </Array>
          </mxGeometry>
        </mxCell>
      </root>
    </mxGraphModel>
  </diagram>
</mxfile>
